<svg width="60" height="68" viewBox="0 0 60 68" fill="none" xmlns="http://www.w3.org/2000/svg">
<g clip-path="url(#clip0_536_4149)">
<g filter="url(#filter0_dii_536_4149)">
<path d="M14.7917 46.5368C28.1651 62.9313 44.8705 71.6107 52.8405 66.587L53.5385 66.0936C53.6993 65.9632 53.8498 65.8207 53.9887 65.6674C54.1903 65.5533 54.379 65.418 54.5516 65.2637L54.9568 64.9049C59.4597 57.8178 45.0507 45.6622 41.8987 48.1292L40.9531 48.8917L40.5253 49.3403L39.8499 49.9009C39.4555 50.3465 38.8997 50.6181 38.3046 50.6559C37.7094 50.6938 37.1235 50.4948 36.6754 50.1028L35.0319 48.1067C32.8522 43.9828 30.2248 40.1096 27.197 36.5566C24.3289 32.8801 21.0593 29.5328 17.4484 26.5764L15.7598 24.5131C15.1295 23.7281 15.5122 22.3825 16.6154 21.4629L16.8856 21.306L17.3583 20.9247L18.2364 20.1846L19.0469 19.5342C21.3208 14.6226 11.7749 0.852131 6.75422 2.24263L5.9212 2.91546L5.606 3.16216L4.50281 3.87984V3.99197L3.89493 4.48538L3.55722 4.77693L2.79174 5.38247C-3.71482 12.1331 1.41838 30.1872 14.7917 46.5368Z" fill="#A0FFD5"/>
</g>
<g filter="url(#filter1_dii_536_4149)">
<path d="M21.3433 17.6952C24.2702 15.3178 24.0675 10.1595 21.0281 5.78618C20.803 5.4722 20.5779 5.13579 20.3077 4.8218C16.5929 0.269034 11.0319 -1.34574 7.87991 1.21099L6.75421 2.24265C11.7748 0.852147 21.3208 14.6226 19.1595 19.4669L21.3433 17.6952Z" fill="#57C091" fill-opacity="0.3" shape-rendering="crispEdges"/>
</g>
<g filter="url(#filter2_dii_536_4149)">
<path d="M55.2946 64.5685L55.6098 64.3218L57.8612 62.4827C61.0131 59.926 60.5629 54.1621 56.848 49.6318C56.6004 49.3178 56.3302 49.0262 56.06 48.7347C52.3902 44.8996 47.3696 43.6437 44.4203 46.0434L42.1689 47.8824L41.9887 48.0394C45.1407 45.5724 59.5497 57.7281 55.0469 64.8152L55.2946 64.5685Z" fill="#57C091" fill-opacity="0.3" shape-rendering="crispEdges"/>
</g>
</g>
<defs>
<filter id="filter0_dii_536_4149" x="-9.01529" y="-6.85547" width="79.8362" height="90.8633" filterUnits="userSpaceOnUse" color-interpolation-filters="sRGB">
<feFlood flood-opacity="0" result="BackgroundImageFix"/>
<feColorMatrix in="SourceAlpha" type="matrix" values="0 0 0 0 0 0 0 0 0 0 0 0 0 0 0 0 0 0 127 0" result="hardAlpha"/>
<feOffset dx="6" dy="6"/>
<feGaussianBlur stdDeviation="4"/>
<feComposite in2="hardAlpha" operator="out"/>
<feColorMatrix type="matrix" values="0 0 0 0 0.0235294 0 0 0 0 0.478431 0 0 0 0 0.27451 0 0 0 0.3 0"/>
<feBlend mode="normal" in2="BackgroundImageFix" result="effect1_dropShadow_536_4149"/>
<feBlend mode="normal" in="SourceGraphic" in2="effect1_dropShadow_536_4149" result="shape"/>
<feColorMatrix in="SourceAlpha" type="matrix" values="0 0 0 0 0 0 0 0 0 0 0 0 0 0 0 0 0 0 127 0" result="hardAlpha"/>
<feOffset dx="-10" dy="-11"/>
<feGaussianBlur stdDeviation="4.5"/>
<feComposite in2="hardAlpha" operator="arithmetic" k2="-1" k3="1"/>
<feColorMatrix type="matrix" values="0 0 0 0 0.0235294 0 0 0 0 0.478431 0 0 0 0 0.27451 0 0 0 0.5 0"/>
<feBlend mode="normal" in2="shape" result="effect2_innerShadow_536_4149"/>
<feColorMatrix in="SourceAlpha" type="matrix" values="0 0 0 0 0 0 0 0 0 0 0 0 0 0 0 0 0 0 127 0" result="hardAlpha"/>
<feOffset dx="15" dy="16"/>
<feGaussianBlur stdDeviation="9.5"/>
<feComposite in2="hardAlpha" operator="arithmetic" k2="-1" k3="1"/>
<feColorMatrix type="matrix" values="0 0 0 0 0.0235294 0 0 0 0 0.478431 0 0 0 0 0.27451 0 0 0 0.4 0"/>
<feBlend mode="normal" in2="effect2_innerShadow_536_4149" result="effect3_innerShadow_536_4149"/>
</filter>
<filter id="filter1_dii_536_4149" x="4.75421" y="-8.00244" width="32.6731" height="41.4692" filterUnits="userSpaceOnUse" color-interpolation-filters="sRGB">
<feFlood flood-opacity="0" result="BackgroundImageFix"/>
<feColorMatrix in="SourceAlpha" type="matrix" values="0 0 0 0 0 0 0 0 0 0 0 0 0 0 0 0 0 0 127 0" result="hardAlpha"/>
<feOffset dx="6" dy="6"/>
<feGaussianBlur stdDeviation="4"/>
<feComposite in2="hardAlpha" operator="out"/>
<feColorMatrix type="matrix" values="0 0 0 0 0.298039 0 0 0 0 0.631373 0 0 0 0 0.482353 0 0 0 0.4 0"/>
<feBlend mode="normal" in2="BackgroundImageFix" result="effect1_dropShadow_536_4149"/>
<feBlend mode="normal" in="SourceGraphic" in2="effect1_dropShadow_536_4149" result="shape"/>
<feColorMatrix in="SourceAlpha" type="matrix" values="0 0 0 0 0 0 0 0 0 0 0 0 0 0 0 0 0 0 127 0" result="hardAlpha"/>
<feOffset dx="-1" dy="-13"/>
<feGaussianBlur stdDeviation="4"/>
<feComposite in2="hardAlpha" operator="arithmetic" k2="-1" k3="1"/>
<feColorMatrix type="matrix" values="0 0 0 0 0.294118 0 0 0 0 0.647059 0 0 0 0 0.490196 0 0 0 1 0"/>
<feBlend mode="normal" in2="shape" result="effect2_innerShadow_536_4149"/>
<feColorMatrix in="SourceAlpha" type="matrix" values="0 0 0 0 0 0 0 0 0 0 0 0 0 0 0 0 0 0 127 0" result="hardAlpha"/>
<feOffset dx="-2" dy="5"/>
<feGaussianBlur stdDeviation="6.5"/>
<feComposite in2="hardAlpha" operator="arithmetic" k2="-1" k3="1"/>
<feColorMatrix type="matrix" values="0 0 0 0 0 0 0 0 0 0.316667 0 0 0 0 0.174921 0 0 0 1 0"/>
<feBlend mode="normal" in2="effect2_innerShadow_536_4149" result="effect3_innerShadow_536_4149"/>
</filter>
<filter id="filter2_dii_536_4149" x="39.9887" y="36.8208" width="33.9701" height="41.9941" filterUnits="userSpaceOnUse" color-interpolation-filters="sRGB">
<feFlood flood-opacity="0" result="BackgroundImageFix"/>
<feColorMatrix in="SourceAlpha" type="matrix" values="0 0 0 0 0 0 0 0 0 0 0 0 0 0 0 0 0 0 127 0" result="hardAlpha"/>
<feOffset dx="6" dy="6"/>
<feGaussianBlur stdDeviation="4"/>
<feComposite in2="hardAlpha" operator="out"/>
<feColorMatrix type="matrix" values="0 0 0 0 0.298039 0 0 0 0 0.631373 0 0 0 0 0.482353 0 0 0 0.4 0"/>
<feBlend mode="normal" in2="BackgroundImageFix" result="effect1_dropShadow_536_4149"/>
<feBlend mode="normal" in="SourceGraphic" in2="effect1_dropShadow_536_4149" result="shape"/>
<feColorMatrix in="SourceAlpha" type="matrix" values="0 0 0 0 0 0 0 0 0 0 0 0 0 0 0 0 0 0 127 0" result="hardAlpha"/>
<feOffset dx="-1" dy="-13"/>
<feGaussianBlur stdDeviation="4"/>
<feComposite in2="hardAlpha" operator="arithmetic" k2="-1" k3="1"/>
<feColorMatrix type="matrix" values="0 0 0 0 0.294118 0 0 0 0 0.647059 0 0 0 0 0.490196 0 0 0 1 0"/>
<feBlend mode="normal" in2="shape" result="effect2_innerShadow_536_4149"/>
<feColorMatrix in="SourceAlpha" type="matrix" values="0 0 0 0 0 0 0 0 0 0 0 0 0 0 0 0 0 0 127 0" result="hardAlpha"/>
<feOffset dx="-2" dy="5"/>
<feGaussianBlur stdDeviation="6.5"/>
<feComposite in2="hardAlpha" operator="arithmetic" k2="-1" k3="1"/>
<feColorMatrix type="matrix" values="0 0 0 0 0 0 0 0 0 0.316667 0 0 0 0 0.174921 0 0 0 1 0"/>
<feBlend mode="normal" in2="effect2_innerShadow_536_4149" result="effect3_innerShadow_536_4149"/>
</filter>
<clipPath id="clip0_536_4149">
<rect width="60" height="68" fill="white"/>
</clipPath>
</defs>
</svg>
